<svg xmlns="http://www.w3.org/2000/svg" xmlns:xlink="http://www.w3.org/1999/xlink" width="1920" zoomAndPan="magnify" viewBox="0 0 1440 359.999987" height="480" preserveAspectRatio="xMidYMid meet" version="1.0"><defs><g/><clipPath id="id1"><path d="M 272.070312 97.347656 L 442.320312 97.347656 L 442.320312 267.597656 L 272.070312 267.597656 Z M 272.070312 97.347656 " clip-rule="nonzero"/></clipPath></defs><path fill="rgb(18.429565%, 52.159119%, 34.899902%)" d="M 351.730469 69.308594 C 289.183594 69.308594 238.480469 120.011719 238.480469 182.558594 C 238.480469 245.105469 289.183594 295.808594 351.730469 295.808594 C 414.277344 295.808594 464.980469 245.105469 464.980469 182.558594 C 464.980469 120.011719 414.277344 69.308594 351.730469 69.308594 " fill-opacity="1" fill-rule="nonzero"/><g clip-path="url(#id1)"><path fill="rgb(18.429565%, 52.159119%, 34.899902%)" d="M 442.320312 182.472656 C 442.320312 183.867188 442.285156 185.257812 442.214844 186.648438 C 442.148438 188.042969 442.046875 189.429688 441.910156 190.816406 C 441.773438 192.203125 441.601562 193.585938 441.398438 194.964844 C 441.195312 196.339844 440.957031 197.714844 440.683594 199.078125 C 440.410156 200.445312 440.105469 201.804688 439.769531 203.15625 C 439.429688 204.507812 439.058594 205.851562 438.652344 207.183594 C 438.25 208.515625 437.8125 209.839844 437.34375 211.152344 C 436.875 212.460938 436.371094 213.761719 435.839844 215.050781 C 435.304688 216.335938 434.742188 217.609375 434.144531 218.867188 C 433.550781 220.128906 432.925781 221.371094 432.269531 222.601562 C 431.609375 223.828125 430.925781 225.039062 430.207031 226.234375 C 429.492188 227.429688 428.746094 228.609375 427.972656 229.765625 C 427.199219 230.925781 426.398438 232.0625 425.566406 233.183594 C 424.738281 234.300781 423.878906 235.398438 422.996094 236.476562 C 422.113281 237.550781 421.203125 238.605469 420.269531 239.640625 C 419.332031 240.671875 418.371094 241.679688 417.386719 242.664062 C 416.402344 243.652344 415.394531 244.609375 414.359375 245.546875 C 413.328125 246.480469 412.273438 247.390625 411.195312 248.277344 C 410.121094 249.160156 409.023438 250.015625 407.902344 250.847656 C 406.785156 251.675781 405.644531 252.476562 404.488281 253.25 C 403.328125 254.027344 402.152344 254.769531 400.957031 255.488281 C 399.761719 256.203125 398.550781 256.890625 397.320312 257.546875 C 396.09375 258.203125 394.847656 258.828125 393.589844 259.425781 C 392.332031 260.019531 391.058594 260.585938 389.769531 261.117188 C 388.484375 261.652344 387.183594 262.152344 385.871094 262.621094 C 384.558594 263.089844 383.238281 263.527344 381.90625 263.933594 C 380.570312 264.335938 379.230469 264.707031 377.878906 265.046875 C 376.527344 265.386719 375.167969 265.691406 373.800781 265.960938 C 372.433594 266.234375 371.0625 266.472656 369.683594 266.675781 C 368.304688 266.882812 366.925781 267.050781 365.539062 267.1875 C 364.152344 267.324219 362.761719 267.425781 361.371094 267.496094 C 359.980469 267.5625 358.585938 267.597656 357.195312 267.597656 C 355.800781 267.597656 354.410156 267.5625 353.015625 267.496094 C 351.625 267.425781 350.238281 267.324219 348.851562 267.1875 C 347.464844 267.050781 346.082031 266.882812 344.703125 266.675781 C 343.324219 266.472656 341.953125 266.234375 340.585938 265.960938 C 339.222656 265.691406 337.863281 265.386719 336.511719 265.046875 C 335.160156 264.707031 333.816406 264.335938 332.484375 263.933594 C 331.152344 263.527344 329.828125 263.089844 328.515625 262.621094 C 327.203125 262.152344 325.90625 261.652344 324.617188 261.117188 C 323.332031 260.585938 322.058594 260.019531 320.796875 259.425781 C 319.539062 258.828125 318.296875 258.203125 317.066406 257.546875 C 315.835938 256.890625 314.625 256.203125 313.429688 255.488281 C 312.234375 254.769531 311.058594 254.027344 309.902344 253.25 C 308.742188 252.476562 307.605469 251.675781 306.484375 250.847656 C 305.367188 250.015625 304.269531 249.160156 303.191406 248.277344 C 302.113281 247.390625 301.058594 246.480469 300.027344 245.546875 C 298.996094 244.609375 297.988281 243.652344 297 242.664062 C 296.015625 241.679688 295.054688 240.671875 294.121094 239.640625 C 293.183594 238.605469 292.277344 237.550781 291.390625 236.476562 C 290.507812 235.398438 289.652344 234.300781 288.820312 233.183594 C 287.992188 232.0625 287.1875 230.925781 286.414062 229.765625 C 285.640625 228.609375 284.894531 227.429688 284.179688 226.234375 C 283.464844 225.039062 282.777344 223.828125 282.121094 222.601562 C 281.464844 221.371094 280.835938 220.128906 280.242188 218.867188 C 279.644531 217.609375 279.082031 216.335938 278.550781 215.050781 C 278.015625 213.761719 277.515625 212.460938 277.046875 211.152344 C 276.574219 209.839844 276.140625 208.515625 275.734375 207.183594 C 275.332031 205.851562 274.957031 204.507812 274.621094 203.15625 C 274.28125 201.804688 273.976562 200.445312 273.703125 199.078125 C 273.433594 197.714844 273.195312 196.339844 272.992188 194.964844 C 272.785156 193.585938 272.617188 192.203125 272.480469 190.816406 C 272.34375 189.429688 272.238281 188.042969 272.171875 186.648438 C 272.101562 185.257812 272.070312 183.867188 272.070312 182.472656 C 272.070312 181.078125 272.101562 179.6875 272.171875 178.296875 C 272.238281 176.90625 272.34375 175.515625 272.480469 174.128906 C 272.617188 172.742188 272.785156 171.359375 272.992188 169.984375 C 273.195312 168.605469 273.433594 167.230469 273.703125 165.867188 C 273.976562 164.5 274.28125 163.140625 274.621094 161.789062 C 274.957031 160.4375 275.332031 159.09375 275.734375 157.761719 C 276.140625 156.429688 276.574219 155.105469 277.046875 153.796875 C 277.515625 152.484375 278.015625 151.183594 278.550781 149.898438 C 279.082031 148.609375 279.644531 147.335938 280.242188 146.078125 C 280.835938 144.816406 281.464844 143.574219 282.121094 142.34375 C 282.777344 141.117188 283.464844 139.90625 284.179688 138.710938 C 284.894531 137.515625 285.640625 136.339844 286.414062 135.179688 C 287.1875 134.023438 287.992188 132.882812 288.820312 131.765625 C 289.652344 130.644531 290.507812 129.546875 291.390625 128.46875 C 292.277344 127.394531 293.183594 126.339844 294.121094 125.304688 C 295.054688 124.273438 296.015625 123.265625 297 122.28125 C 297.988281 121.296875 298.996094 120.335938 300.027344 119.398438 C 301.058594 118.464844 302.113281 117.554688 303.191406 116.671875 C 304.269531 115.785156 305.367188 114.929688 306.484375 114.101562 C 307.605469 113.269531 308.742188 112.46875 309.902344 111.695312 C 311.058594 110.921875 312.234375 110.175781 313.429688 109.457031 C 314.625 108.742188 315.835938 108.054688 317.066406 107.398438 C 318.296875 106.742188 319.539062 106.117188 320.796875 105.519531 C 322.058594 104.925781 323.332031 104.359375 324.617188 103.828125 C 325.90625 103.292969 327.203125 102.792969 328.515625 102.324219 C 329.828125 101.855469 331.152344 101.417969 332.484375 101.011719 C 333.816406 100.609375 335.160156 100.238281 336.511719 99.898438 C 337.863281 99.5625 339.222656 99.253906 340.585938 98.984375 C 341.953125 98.710938 343.324219 98.472656 344.703125 98.269531 C 346.082031 98.066406 347.464844 97.894531 348.851562 97.757812 C 350.238281 97.621094 351.625 97.519531 353.015625 97.449219 C 354.410156 97.382812 355.800781 97.347656 357.195312 97.347656 C 358.585938 97.347656 359.980469 97.382812 361.371094 97.449219 C 362.761719 97.519531 364.152344 97.621094 365.539062 97.757812 C 366.925781 97.894531 368.304688 98.066406 369.683594 98.269531 C 371.0625 98.472656 372.433594 98.710938 373.800781 98.984375 C 375.167969 99.253906 376.527344 99.5625 377.878906 99.898438 C 379.230469 100.238281 380.570312 100.609375 381.90625 101.011719 C 383.238281 101.417969 384.558594 101.855469 385.871094 102.324219 C 387.183594 102.792969 388.484375 103.292969 389.769531 103.828125 C 391.058594 104.359375 392.332031 104.925781 393.589844 105.519531 C 394.847656 106.117188 396.09375 106.742188 397.320312 107.398438 C 398.550781 108.054688 399.761719 108.742188 400.957031 109.457031 C 402.152344 110.175781 403.328125 110.921875 404.488281 111.695312 C 405.644531 112.46875 406.785156 113.269531 407.902344 114.101562 C 409.023438 114.929688 410.121094 115.785156 411.195312 116.671875 C 412.273438 117.554688 413.328125 118.464844 414.359375 119.398438 C 415.394531 120.335938 416.402344 121.296875 417.386719 122.28125 C 418.371094 123.265625 419.332031 124.273438 420.269531 125.304688 C 421.203125 126.339844 422.113281 127.394531 422.996094 128.46875 C 423.878906 129.546875 424.738281 130.644531 425.566406 131.765625 C 426.398438 132.882812 427.199219 134.023438 427.972656 135.179688 C 428.746094 136.339844 429.492188 137.515625 430.207031 138.710938 C 430.925781 139.90625 431.609375 141.117188 432.269531 142.34375 C 432.925781 143.574219 433.550781 144.816406 434.144531 146.078125 C 434.742188 147.335938 435.304688 148.609375 435.839844 149.898438 C 436.371094 151.183594 436.875 152.484375 437.34375 153.796875 C 437.8125 155.105469 438.25 156.429688 438.652344 157.761719 C 439.058594 159.09375 439.429688 160.4375 439.769531 161.789062 C 440.105469 163.140625 440.410156 164.5 440.683594 165.867188 C 440.957031 167.230469 441.191406 168.605469 441.398438 169.984375 C 441.601562 171.359375 441.773438 172.742188 441.910156 174.128906 C 442.046875 175.515625 442.148438 176.90625 442.214844 178.296875 C 442.285156 179.6875 442.320312 181.078125 442.320312 182.472656 Z M 442.320312 182.472656 " fill-opacity="1" fill-rule="nonzero"/></g><path fill="rgb(100%, 100%, 100%)" d="M 336.082031 241.175781 L 289.660156 194.757812 L 308.15625 176.257812 L 336.082031 204.179688 L 406.21875 134.035156 L 424.722656 152.53125 Z M 336.082031 241.175781 " fill-opacity="1" fill-rule="nonzero"/><g fill="rgb(2.749634%, 2.749634%, 2.749634%)" fill-opacity="1"><g transform="translate(-0.60264, 300.837305)"><g><path d="M 187.210938 -231.535156 L 117.089844 -56.5625 L 112.460938 -41.675781 L 107.828125 -56.5625 L 37.707031 -231.535156 L 5.292969 -231.535156 L 98.898438 0 L 126.351562 0 L 219.628906 -231.535156 Z M 187.210938 -231.535156 "/></g></g></g><g fill="rgb(2.749634%, 2.749634%, 2.749634%)" fill-opacity="1"><g transform="translate(224.274877, 300.837305)"><g><path d="M 131.644531 -235.835938 C 97.246094 -235.835938 68.800781 -224.589844 46.636719 -201.765625 C 24.476562 -178.945312 13.230469 -150.496094 13.230469 -116.097656 C 13.230469 -81.367188 24.476562 -52.589844 46.636719 -29.769531 C 68.800781 -6.945312 97.246094 4.300781 131.644531 4.300781 C 165.714844 4.300781 194.160156 -6.945312 216.320312 -29.769531 C 238.480469 -52.589844 249.726562 -81.367188 249.726562 -116.097656 C 249.726562 -150.496094 238.480469 -178.945312 216.320312 -201.765625 C 194.160156 -224.589844 165.714844 -235.835938 131.644531 -235.835938 Z M 131.644531 -207.71875 C 157.113281 -207.71875 177.621094 -199.121094 193.828125 -181.589844 C 210.035156 -164.390625 218.304688 -142.558594 218.304688 -116.097656 C 218.304688 -89.304688 210.035156 -67.476562 193.828125 -49.945312 C 177.621094 -32.414062 157.113281 -23.816406 131.644531 -23.816406 C 106.175781 -23.816406 85.007812 -32.414062 68.800781 -49.945312 C 52.589844 -67.476562 44.652344 -89.304688 44.652344 -116.097656 C 44.652344 -142.558594 52.589844 -164.390625 68.800781 -181.589844 C 85.007812 -199.121094 106.175781 -207.71875 131.644531 -207.71875 Z M 131.644531 -207.71875 "/></g></g></g><g fill="rgb(2.749634%, 2.749634%, 2.749634%)" fill-opacity="1"><g transform="translate(487.183175, 300.837305)"><g><path d="M 3.308594 -231.535156 L 3.308594 -203.421875 L 85.335938 -203.421875 L 85.335938 0 L 115.4375 0 L 115.4375 -203.421875 L 197.464844 -203.421875 L 197.464844 -231.535156 Z M 3.308594 -231.535156 "/></g></g></g><g fill="rgb(2.749634%, 2.749634%, 2.749634%)" fill-opacity="1"><g transform="translate(687.919455, 300.837305)"><g><path d="M 118.414062 -180.265625 L 155.128906 -89.304688 L 73.429688 -89.304688 L 109.8125 -180.265625 L 114.113281 -192.835938 Z M 98.898438 -231.535156 L 5.953125 0 L 39.03125 0 L 63.175781 -61.191406 L 165.382812 -61.191406 L 189.859375 0 L 222.933594 0 L 129.992188 -231.535156 Z M 98.898438 -231.535156 "/></g></g></g><g fill="rgb(2.749634%, 2.749634%, 2.749634%)" fill-opacity="1"><g transform="translate(916.765399, 300.837305)"><g><path d="M 25.800781 -231.535156 L 25.800781 0 L 100.550781 0 C 147.191406 0 176.960938 -26.128906 176.960938 -66.152344 C 176.960938 -92.285156 162.734375 -112.460938 137.929688 -121.390625 C 154.46875 -132.304688 162.734375 -148.183594 162.734375 -168.691406 C 162.734375 -207.058594 134.953125 -231.535156 90.296875 -231.535156 Z M 100.550781 -104.191406 C 129.328125 -104.191406 146.199219 -90.296875 146.199219 -66.8125 C 146.199219 -42.667969 128.667969 -28.113281 100.550781 -28.113281 L 55.898438 -28.113281 L 55.898438 -104.191406 Z M 90.296875 -203.421875 C 116.429688 -203.421875 132.304688 -190.519531 132.304688 -167.035156 C 132.304688 -145.867188 116.429688 -131.976562 91.621094 -131.976562 L 55.898438 -131.976562 L 55.898438 -203.421875 Z M 90.296875 -203.421875 "/></g></g></g><g fill="rgb(2.749634%, 2.749634%, 2.749634%)" fill-opacity="1"><g transform="translate(1105.596396, 300.837305)"><g><path d="M 25.46875 -231.535156 L 25.46875 0 L 158.765625 0 L 158.765625 -28.113281 L 55.570312 -28.113281 L 55.570312 -231.535156 Z M 25.46875 -231.535156 "/></g></g></g><g fill="rgb(2.749634%, 2.749634%, 2.749634%)" fill-opacity="1"><g transform="translate(1271.939646, 300.837305)"><g><path d="M 25.800781 -231.535156 L 25.800781 0 L 153.144531 0 L 153.144531 -28.113281 L 55.898438 -28.113281 L 55.898438 -105.183594 L 141.566406 -105.183594 L 141.566406 -133.296875 L 55.898438 -133.296875 L 55.898438 -203.421875 L 153.144531 -203.421875 L 153.144531 -231.535156 Z M 25.800781 -231.535156 "/></g></g></g></svg>