<svg xmlns="http://www.w3.org/2000/svg" xmlns:xlink="http://www.w3.org/1999/xlink" width="375" viewBox="0 0 375 375" height="375" version="1.0"><defs><g id="c"><path d="M 11.761719 -7.804688 L 17.625 -6.871094 C 16.691406 -2.316406 13.742188 0.296875 9.410156 0.296875 C 4.03125 0.296875 1.007812 -3.210938 1.007812 -9.335938 C 1.007812 -15.496094 4.03125 -18.96875 9.410156 -18.96875 C 13.742188 -18.96875 16.691406 -16.390625 17.625 -11.800781 L 11.761719 -10.867188 C 11.464844 -12.695312 10.605469 -13.742188 9.445312 -13.742188 C 7.878906 -13.742188 6.984375 -12.171875 6.984375 -9.335938 C 6.984375 -6.535156 7.878906 -4.964844 9.445312 -4.964844 C 10.679688 -4.964844 11.5 -5.972656 11.761719 -7.804688 Z M 11.761719 -7.804688"/></g><g id="d"><path d="M 7.28125 -18.667969 L 1.230469 -18.667969 L 1.230469 0 L 7.28125 0 Z M 7.28125 -18.667969"/></g><g id="e"><path d="M 6.609375 -18.667969 L 10.492188 -8.140625 L 14.449219 -18.667969 L 20.6875 -18.667969 L 13.480469 0 L 7.503906 0 L 0.335938 -18.667969 Z M 6.609375 -18.667969"/></g><g id="f"><path d="M 10.714844 -20.609375 L 22.859375 -20.609375 L 22.859375 -27.476562 L 1.8125 -27.476562 L 1.8125 0 L 22.859375 0 L 22.859375 -6.871094 L 10.714844 -6.871094 L 10.714844 -10.441406 L 22.859375 -10.441406 L 22.859375 -17.035156 L 10.714844 -17.035156 Z M 10.714844 -20.609375"/></g><g id="g"><path d="M 1.8125 0 L 10.714844 0 L 10.714844 -12.75 L 18.191406 -0.0546875 L 25.71875 0 L 25.71875 -27.476562 L 16.761719 -27.476562 L 16.761719 -14.78125 L 9.34375 -27.53125 L 1.8125 -27.53125 Z M 1.8125 0"/></g><g id="h"><path d="M 26.324219 0 L 26.488281 -14.5625 L 13.847656 -14.5625 L 13.847656 -9.671875 L 16.375 -9.671875 C 15.828125 -8.132812 15.003906 -7.308594 14.011719 -7.308594 C 11.59375 -7.308594 10.277344 -9.617188 10.277344 -13.738281 C 10.277344 -17.914062 11.59375 -20.222656 14.011719 -20.222656 C 15.882812 -20.222656 17.089844 -18.738281 17.53125 -16.046875 L 26.210938 -17.585938 C 25.113281 -24.179688 20.828125 -27.917969 13.957031 -27.917969 C 5.933594 -27.917969 1.484375 -22.804688 1.484375 -13.738281 C 1.484375 -4.726562 5.933594 0.441406 13.957031 0.441406 C 16.816406 0.441406 19.289062 -0.769531 21.375 -3.023438 L 22.367188 0 Z M 26.324219 0"/></g><g id="i"><path d="M 10.714844 -27.476562 L 1.8125 -27.476562 L 1.8125 0 L 10.714844 0 Z M 10.714844 -27.476562"/></g><clipPath id="a"><path d="M 18.75 238 L 356.25 238 L 356.25 248.460938 L 18.75 248.460938 Z M 18.75 238"/></clipPath><clipPath id="b"><path d="M 93 126.328125 L 261 126.328125 L 261 130 L 93 130 Z M 93 126.328125"/></clipPath><clipPath id="j"><path d="M 255 186 L 278.609375 186 L 278.609375 204 L 255 204 Z M 255 186"/></clipPath><clipPath id="k"><path d="M 250.109375 182.480469 L 277 182.480469 L 277 208.730469 L 250.109375 208.730469 Z M 250.109375 182.480469"/></clipPath></defs><g clip-path="url(#a)"><path fill="#A10F18" d="M 18.753906 238.984375 L 356.253906 238.984375 L 356.253906 248.449219 L 18.753906 248.449219 Z M 18.753906 238.984375"/></g><path fill="#A10F18" d="M 297.175781 220.554688 L 333.320312 220.554688 L 333.320312 200.632812 L 300.667969 200.632812 L 299.171875 149.824219 C 299.171875 149.824219 301.414062 142.601562 308.644531 142.601562 L 308.144531 128.90625 L 237.605469 128.90625 L 237.605469 145.589844 L 188.75 145.589844 C 188.75 145.589844 186.503906 134.136719 173.542969 134.136719 C 160.582031 134.136719 159.835938 146.089844 159.835938 146.089844 L 119.453125 145.839844 L 118.957031 129.152344 L 90.789062 129.152344 L 90.789062 145.839844 L 63.621094 145.839844 C 63.621094 145.839844 53.152344 165.019531 62.375 187.183594 L 76.082031 187.183594 L 69.101562 200.882812 L 43.179688 200.882812 L 43.179688 221.304688 L 58.882812 221.304688 C 61.699219 230.992188 69.332031 238.472656 81.316406 239.234375 C 94.007812 240.039062 102.433594 232.8125 104.746094 221.550781 L 122.695312 221.800781 C 126.070312 232.335938 133.660156 239.800781 145.378906 239.980469 C 157.929688 240.179688 166.011719 232.78125 168.558594 221.550781 L 186.257812 221.550781 C 189.773438 231.984375 197.316406 239.824219 210.183594 239.484375 C 223.0625 239.144531 230.605469 231.464844 233.117188 220.804688 L 251.0625 220.804688 C 254.496094 230.828125 261.476562 239.78125 275.242188 239.484375 C 286.648438 239.238281 293.976562 231.523438 297.175781 220.554688 Z M 297.175781 220.554688"/><g clip-path="url(#b)"><path fill="#A10F18" d="M 129.472656 111.316406 C 131.074219 111.414062 148.421875 116.390625 156.300781 105.445312 C 157.558594 103.71875 158.03125 101.359375 159.804688 100.050781 C 174.304688 102.160156 177.957031 95.058594 179.664062 94.648438 C 190.679688 101.007812 195.429688 102.292969 208.519531 94.492188 C 211.898438 92.449219 214.925781 89.671875 216.789062 86.15625 C 217.550781 85.125 218.367188 83.539062 219.882812 83.742188 C 222.003906 84.808594 223.777344 86.527344 226.085938 87.246094 C 256.824219 97.148438 273.753906 53.960938 249.023438 41.828125 C 245.59375 39.8125 259.472656 10.601562 221.15625 1.742188 C 193.988281 -2.773438 178.59375 16.625 178.125 30.945312 C 177.167969 36.011719 178.472656 43.625 178.5625 45.246094 C 173.394531 47.375 173.882812 49.273438 171.15625 51.59375 C 146.128906 41.222656 131.382812 55.429688 133.566406 72.15625 C 101.488281 67.253906 102.699219 86.4375 101.296875 97.375 C 100.898438 100.363281 103.058594 102.9375 103.195312 105.847656 C 102.574219 107.671875 94.351562 110.1875 93.816406 116.453125 C 92.292969 120.164062 93.046875 124.449219 94.890625 127.902344 C 95.402344 128.667969 96.199219 129.179688 96.765625 129.902344 L 114.957031 129.902344 C 118.441406 123.066406 127.175781 112.09375 129.472656 111.316406 Z M 129.472656 111.316406"/></g><g fill="#FFF"><use x="98.368" y="176.249" xmlns:xlink="http://www.w3.org/1999/xlink" xlink:href="#c" xlink:type="simple" xlink:actuate="onLoad" xlink:show="embed"/></g><g fill="#FFF"><use x="116.959" y="176.249" xmlns:xlink="http://www.w3.org/1999/xlink" xlink:href="#d" xlink:type="simple" xlink:actuate="onLoad" xlink:show="embed"/></g><g fill="#FFF"><use x="125.471" y="176.249" xmlns:xlink="http://www.w3.org/1999/xlink" xlink:href="#e" xlink:type="simple" xlink:actuate="onLoad" xlink:show="embed"/></g><g fill="#FFF"><use x="146.489" y="176.249" xmlns:xlink="http://www.w3.org/1999/xlink" xlink:href="#d" xlink:type="simple" xlink:actuate="onLoad" xlink:show="embed"/></g><g fill="#FFF"><use x="155.001" y="176.249" xmlns:xlink="http://www.w3.org/1999/xlink" xlink:href="#c" xlink:type="simple" xlink:actuate="onLoad" xlink:show="embed"/></g><g fill="#FFF"><use x="98.369" y="208.701" xmlns:xlink="http://www.w3.org/1999/xlink" xlink:href="#f" xlink:type="simple" xlink:actuate="onLoad" xlink:show="embed"/></g><g fill="#FFF"><use x="123.039" y="208.701" xmlns:xlink="http://www.w3.org/1999/xlink" xlink:href="#g" xlink:type="simple" xlink:actuate="onLoad" xlink:show="embed"/></g><g fill="#FFF"><use x="150.511" y="208.701" xmlns:xlink="http://www.w3.org/1999/xlink" xlink:href="#h" xlink:type="simple" xlink:actuate="onLoad" xlink:show="embed"/></g><g fill="#FFF"><use x="178.753" y="208.701" xmlns:xlink="http://www.w3.org/1999/xlink" xlink:href="#i" xlink:type="simple" xlink:actuate="onLoad" xlink:show="embed"/></g><g fill="#FFF"><use x="191.28" y="208.701" xmlns:xlink="http://www.w3.org/1999/xlink" xlink:href="#g" xlink:type="simple" xlink:actuate="onLoad" xlink:show="embed"/></g><g fill="#FFF"><use x="218.752" y="208.701" xmlns:xlink="http://www.w3.org/1999/xlink" xlink:href="#f" xlink:type="simple" xlink:actuate="onLoad" xlink:show="embed"/></g><g clip-path="url(#j)"><path fill="#FFF" d="M 259.980469 199.867188 L 262.867188 203.148438 L 262.96875 203.261719 L 278.542969 189.601562 L 275.554688 186.207031 L 263.332031 196.929688 L 259.070312 192.085938 L 255.71875 195.027344 Z M 259.980469 199.867188"/></g><g clip-path="url(#k)"><path fill="#FFF" d="M 273.175781 205.449219 L 253.457031 205.449219 L 253.457031 185.761719 L 273.175781 185.761719 L 273.175781 186.324219 L 275.902344 183.9375 C 275.3125 183.0625 274.3125 182.480469 273.175781 182.480469 L 253.457031 182.480469 C 251.644531 182.480469 250.171875 183.953125 250.171875 185.761719 L 250.171875 205.449219 C 250.171875 207.261719 251.644531 208.730469 253.457031 208.730469 L 273.175781 208.730469 C 274.992188 208.730469 276.460938 207.261719 276.460938 205.449219 L 276.460938 193.367188 L 273.175781 196.25 Z M 273.175781 205.449219"/></g><path transform="matrix(.04414 4.5192 -4.49979 .04395 299.914 142.458)" fill="none" d="M -0.0002719 0.0000677155 L 13.278133 0.0000928514" stroke="#A10F18"/><path transform="matrix(3.74638 -.00578 .00579 3.75 180.75 169.038)" fill="none" d="M 0.0000092377 0.000269668 L 32.433384 0.000296151" stroke="#FFF"/><path transform="matrix(3.74602 .00507 -.00507 3.75 180.735 160.07)" fill="none" d="M -0.000211786 -0.000103444 L 32.437325 -0.000173556" stroke="#FFF"/></svg>